<svg xmlns="http://www.w3.org/2000/svg" width="32.618" height="43.949" viewBox="0 0 32.618 43.949"><path d="M29.184,16.91V12.875a12.875,12.875,0,0,0-25.751,0V16.91A4.3,4.3,0,0,0,0,21.116v4.873a.858.858,0,1,0,1.717,0V21.116a2.578,2.578,0,0,1,2.575-2.575H28.326A2.578,2.578,0,0,1,30.9,21.116V39.657a2.579,2.579,0,0,1-1.717,2.428V36.91a.858.858,0,0,0-1.717,0v5.322H4.292a2.578,2.578,0,0,1-2.575-2.575V32.875a.858.858,0,0,0-1.717,0v6.781a4.3,4.3,0,0,0,4.292,4.292H28.326a4.3,4.3,0,0,0,4.292-4.292V21.116A4.3,4.3,0,0,0,29.184,16.91Zm-19.4-.087V12.875a6.524,6.524,0,0,1,13.047,0v3.948Zm14.764,0V12.875a8.24,8.24,0,1,0-16.481,0v3.948H5.15V12.875a11.159,11.159,0,0,1,22.318,0v3.948Zm0,0" fill="#6423d2"/><path d="M.858,334.2A.858.858,0,1,0,0,333.346a.858.858,0,0,0,.858.858Zm0,0" transform="translate(0 -303.948)" fill="#6423d2"/><path d="M140.753,291.544a2.578,2.578,0,0,0,2.575-2.575V284.41a4.635,4.635,0,1,0-5.15-.015v4.573A2.578,2.578,0,0,0,140.753,291.544Zm-2.907-10.994a2.918,2.918,0,1,1,4.236,2.6.858.858,0,0,0-.47.766v5.05a.858.858,0,0,1-1.717,0v-5.061a.858.858,0,0,0-.465-.763A2.91,2.91,0,0,1,137.846,280.549Zm0,0" transform="translate(-124.444 -252.23)" fill="#6423d2"/><path d="M320.858,380.717a.859.859,0,1,0-.607-.252A.863.863,0,0,0,320.858,380.717Zm0,0" transform="translate(-292.532 -346.468)" fill="#6423d2"/></svg>