<svg xmlns="http://www.w3.org/2000/svg" width="39.705" height="39.137" viewBox="0 0 39.705 39.137"><path d="M40.843,26.514l.252.126a.849.849,0,0,1,.545,1.049l-1.259,3.9a.849.849,0,0,1-1.049.545l-3.566-.755a15.44,15.44,0,0,1-1.552,2.14l1.8,3.189a.841.841,0,0,1-.168,1.133l-3.315,2.392a.841.841,0,0,1-1.133-.168l-2.475-2.685a12.575,12.575,0,0,1-2.517.8l-.42,3.734a.916.916,0,0,1-.8.923h-4.07a.883.883,0,0,1-.8-.923l-.42-3.692a16.108,16.108,0,0,1-2.517-.839l-2.6,2.643a.808.808,0,0,1-1.133.168L10.34,37.8a.773.773,0,0,1-.168-1.133l1.8-3.189a15.44,15.44,0,0,1-1.552-2.14l-3.566.755a.849.849,0,0,1-1.049-.545l-1.259-3.9A.85.85,0,0,1,5.1,26.6l3.357-1.51c-.042-.42-.042-.881-.042-1.343s.042-.881.042-1.343L5.1,20.892a.849.849,0,0,1-.545-1.049l1.259-3.9A.849.849,0,0,1,6.858,15.4l3.566.755a15.44,15.44,0,0,1,1.552-2.14l-1.8-3.1a.841.841,0,0,1,.168-1.133l3.315-2.392a.841.841,0,0,1,1.133.168l2.475,2.685a12.576,12.576,0,0,1,2.517-.8l.42-3.524A.728.728,0,0,1,21,5.2h4.07a.707.707,0,0,1,.8.713l.042.378m3.1,25.3A9.82,9.82,0,1,1,17.683,15.563M30.438,6.333a12.339,12.339,0,0,0-4.154.713,12.276,12.276,0,0,0,2.853,23.748c.42.042.881.084,1.3.084a12.273,12.273,0,0,0,0-24.545ZM33.5,14.179c0,2.14-1.385,3.9-3.063,3.9s-3.063-1.762-3.063-3.9,1.385-3.9,3.063-3.9S33.5,12.039,33.5,14.179ZM24.48,25.256a5.937,5.937,0,0,1,11.874,0" transform="translate(-3.734 -4.449)" fill="rgba(0,0,0,0)" stroke="#6423d2" stroke-linecap="round" stroke-linejoin="round" stroke-miterlimit="10" stroke-width="1.5"/></svg>