<svg xmlns="http://www.w3.org/2000/svg" width="39" height="30" viewBox="0 0 39 30"><path d="M39.35,35.387H1.65A.651.651,0,0,1,1,34.735V13.869a.65.65,0,1,1,1.3,0V34.083H38.7V8.652a.65.65,0,1,1,1.3,0V34.735A.651.651,0,0,1,39.35,35.387Z" transform="translate(-1 -5.387)" fill="#6423d2"/><path d="M1.65,33.387a.652.652,0,0,1-.391-1.171l11.549-8.79a.651.651,0,0,1,.784,1.039L2.043,33.255A.65.65,0,0,1,1.65,33.387Zm37.7,0a.643.643,0,0,1-.393-.133L27.342,24.413a.651.651,0,0,1,.784-1.039l11.616,8.841a.652.652,0,0,1,.126.913A.644.644,0,0,1,39.35,33.387ZM20.5,25.892a3.782,3.782,0,0,1-2.417-.839L3.24,12.729A6.251,6.251,0,0,1,1,8.608V6.652A.651.651,0,0,1,1.65,6h37.7a.651.651,0,0,1,.65.652V8.608a6.256,6.256,0,0,1-2.24,4.122L22.917,25.052A3.776,3.776,0,0,1,20.5,25.892ZM2.3,7.3v1.3a5.071,5.071,0,0,0,1.767,3.117L18.91,24.049a2.687,2.687,0,0,0,3.179,0L36.932,11.726A5.074,5.074,0,0,0,38.7,8.608V7.3Z" transform="translate(-1 -6)" fill="#6423d2"/><path d="M20.5,25.929a3.778,3.778,0,0,1-2.417-.84L3.24,12.742A6.266,6.266,0,0,1,1,8.613V6.653A.652.652,0,0,1,1.65,6h37.7a.652.652,0,0,1,.65.653v1.96a6.271,6.271,0,0,1-2.24,4.13L22.917,25.087A3.771,3.771,0,0,1,20.5,25.929ZM2.3,7.307V8.613a5.083,5.083,0,0,0,1.767,3.123L18.91,24.083a2.683,2.683,0,0,0,3.179,0L36.932,11.737A5.085,5.085,0,0,0,38.7,8.613V7.307Z" transform="translate(-1 -6)" fill="#6423d2"/></svg>