<svg xmlns="http://www.w3.org/2000/svg" xmlns:xlink="http://www.w3.org/1999/xlink" width="40" height="32" viewBox="0 0 40 32"><defs><clipPath id="a"><rect width="40" height="32" transform="translate(721 1278)" fill="#747474"/></clipPath></defs><g transform="translate(-721 -1278)" clip-path="url(#a)"><g transform="translate(721 1186.938)"><g transform="translate(0 94.062)"><g transform="translate(0 0)"><path d="M37.2,104.789l-1.036-4.143a.626.626,0,0,0,.5-.612v-.668a2.634,2.634,0,0,0-2.63-2.631H29.311V95.356a1.3,1.3,0,0,0-1.294-1.294H3.967a1.3,1.3,0,0,0-1.294,1.294v11.357a.626.626,0,1,0,1.253,0V95.356a.042.042,0,0,1,.042-.042h24.05a.042.042,0,0,1,.042.042v11.357a.626.626,0,0,0,1.253,0V106H36.7a2.05,2.05,0,0,1,1.946,1.42H36.7a.626.626,0,0,0-.626.626v1.336a1.965,1.965,0,0,0,1.962,1.962h.71V114.1H37.11a3.965,3.965,0,0,0-7.5,0h-.3v-4.718a.626.626,0,1,0-1.253,0V114.1H15.064a3.965,3.965,0,0,0-7.5,0h-3.6a.042.042,0,0,1-.042-.042v-1.378H6.639a.626.626,0,0,0,0-1.253H.626a.626.626,0,0,0,0,1.253H2.672v1.378a1.3,1.3,0,0,0,1.294,1.294H7.35c0,.014,0,.028,0,.042a3.967,3.967,0,1,0,7.933,0c0-.014,0-.028,0-.042H29.4c0,.014,0,.028,0,.042a3.967,3.967,0,1,0,7.933,0c0-.014,0-.028,0-.042h2.047A.626.626,0,0,0,40,114.73V108.05A3.3,3.3,0,0,0,37.2,104.789Zm-7.889-6.8H34.03a1.379,1.379,0,0,1,1.378,1.378v.042h-6.1Zm0,6.764v-4.092h5.565l1.023,4.092Zm-18,13.361a2.714,2.714,0,1,1,2.714-2.714A2.717,2.717,0,0,1,11.315,118.112Zm22.046,0a2.714,2.714,0,1,1,2.714-2.714A2.717,2.717,0,0,1,33.362,118.112Zm5.386-8.017h-.71a.711.711,0,0,1-.71-.71v-.71h1.42v1.42Z" transform="translate(0 -94.062)" fill="#747474"/></g></g><g transform="translate(10.021 114.104)"><path d="M129.561,350.6a1.294,1.294,0,1,0,1.294,1.294A1.3,1.3,0,0,0,129.561,350.6Z" transform="translate(-128.267 -350.597)" fill="#747474"/></g><g transform="translate(32.067 114.104)"><path d="M411.749,350.6a1.294,1.294,0,1,0,1.294,1.294A1.3,1.3,0,0,0,411.749,350.6Z" transform="translate(-410.455 -350.597)" fill="#747474"/></g><g transform="translate(16.034 111.432)"><path d="M215.206,316.393h-9.353a.626.626,0,1,0,0,1.253h9.353a.626.626,0,1,0,0-1.253Z" transform="translate(-205.227 -316.393)" fill="#747474"/></g><g transform="translate(1.336 108.76)"><g transform="translate(0 0)"><path d="M25.745,282.188H17.728a.626.626,0,1,0,0,1.253h8.017a.626.626,0,1,0,0-1.253Z" transform="translate(-17.102 -282.188)" fill="#747474"/></g></g><g transform="translate(11.357 100.075)"><path d="M155.792,171.206a.626.626,0,0,0-.886,0l-5.57,5.57-2.9-2.9a.626.626,0,0,0-.886.886l3.34,3.34a.626.626,0,0,0,.886,0l6.013-6.013A.626.626,0,0,0,155.792,171.206Z" transform="translate(-145.37 -171.023)" fill="#747474"/></g></g></g></svg>