<?xml version="1.0"?>
<svg xmlns="http://www.w3.org/2000/svg" xmlns:xlink="http://www.w3.org/1999/xlink" version="1.1" id="Capa_1" x="0px" y="0px" viewBox="0 0 512 512" style="enable-background:new 0 0 512 512;" xml:space="preserve" width="512px" height="512px" class=""><g><script xmlns=""/><g>
	<path style="fill:#6423D2" d="M167.487,207.22c-5.474,0-10.749-3.007-13.393-8.224c-3.744-7.39-0.788-16.416,6.602-20.16   L310.9,102.735c7.389-3.743,16.415-0.79,20.16,6.601c3.744,7.39,0.788,16.416-6.602,20.16l-150.204,76.102   C172.082,206.699,169.768,207.22,167.487,207.22z" data-original="#136EF1" class="active-path" data-old_color="#136EF1"/>
	<path style="fill:#6423D2" d="M194.331,260.882c-5.474,0-10.749-3.007-13.393-8.224c-3.744-7.39-0.788-16.416,6.602-20.16   L337.743,156.4c7.39-3.742,16.415-0.789,20.16,6.602c3.744,7.39,0.788,16.416-6.602,20.16l-150.203,76.097   C198.926,260.36,196.611,260.882,194.331,260.882z" data-original="#136EF1" class="active-path" data-old_color="#136EF1"/>
	<path style="fill:#6423D2" d="M344.511,357.222c-2.229,0-4.49-0.499-6.624-1.551l-150.203-74.097   c-7.43-3.665-10.481-12.659-6.816-20.088c3.665-7.429,12.658-10.482,20.088-6.816l150.203,74.097   c7.43,3.665,10.481,12.659,6.816,20.088C355.362,354.15,350.042,357.222,344.511,357.222z" data-original="#136EF1" class="active-path" data-old_color="#136EF1"/>
	<path style="fill:#6423D2" d="M317.668,410.888c-2.229,0-4.491-0.499-6.625-1.551l-150.204-74.102   c-7.429-3.665-10.48-12.659-6.815-20.088c3.665-7.429,12.659-10.481,20.089-6.816l150.204,74.102   c7.429,3.665,10.48,12.659,6.815,20.088C328.52,407.817,323.199,410.888,317.668,410.888z" data-original="#136EF1" class="active-path" data-old_color="#136EF1"/>
</g><g>
	<path style="fill:#6423D2" d="M105,362C47.103,362,0,314.897,0,257s47.103-105,105-105s105,47.103,105,105S162.897,362,105,362z    M105,182c-41.355,0-75,33.645-75,75s33.645,75,75,75s75-33.645,75-75S146.355,182,105,182z" data-original="#18A7FC" class="" data-old_color="#18A7FC"/>
	<path style="fill:#6423D2" d="M407,210c-57.897,0-105-47.103-105-105S349.103,0,407,0s105,47.103,105,105S464.897,210,407,210z    M407,30c-41.355,0-75,33.645-75,75s33.645,75,75,75s75-33.645,75-75S448.355,30,407,30z" data-original="#18A7FC" class="" data-old_color="#18A7FC"/>
	<path style="fill:#6423D2" d="M407,512c-57.897,0-105-47.103-105-105s47.103-105,105-105s105,47.103,105,105S464.897,512,407,512z    M407,332c-41.355,0-75,33.645-75,75s33.645,75,75,75s75-33.645,75-75S448.355,332,407,332z" data-original="#18A7FC" class="" data-old_color="#18A7FC"/>
</g></g> </svg>
