<svg xmlns="http://www.w3.org/2000/svg" xmlns:xlink="http://www.w3.org/1999/xlink" width="65" height="65" viewBox="0 0 65 65"><defs><clipPath id="a"><rect width="65" height="65" transform="translate(1054 -23088)"/></clipPath><linearGradient id="b" x1="0.5" x2="0.5" y2="1" gradientUnits="objectBoundingBox"><stop offset="0" stop-color="#ff790e"/><stop offset="1" stop-color="#6423d2"/></linearGradient><linearGradient id="g" x1="0.5" x2="0.5" y2="1" gradientUnits="objectBoundingBox"><stop offset="0" stop-color="#ff790e"/><stop offset="1" stop-color="#691ee6"/></linearGradient></defs><g transform="translate(-154 -184)"><g transform="translate(85 40)"><g transform="translate(-985 23232)" clip-path="url(#a)"><g transform="translate(1056.786 -23085.215)"><g transform="translate(0 0)"><path d="M55.113,0H5.014A5.014,5.014,0,0,0,0,5.014v50.1a5.014,5.014,0,0,0,5.014,5.014h50.1a5.014,5.014,0,0,0,5.014-5.014V5.014A5.014,5.014,0,0,0,55.113,0Zm3.007,55.113a3.006,3.006,0,0,1-3.006,3.006H5.014a3.006,3.006,0,0,1-3.006-3.006V10.02H58.119Zm0-47.1H2v-3A3.006,3.006,0,0,1,5.014,2h50.1a3.006,3.006,0,0,1,3.007,3.01v3Z" fill="url(#b)"/><path d="M44.671,34.133h-1a1,1,0,1,0,0,2h1a1,1,0,1,0,0-2Z" transform="translate(-37.656 -30.125)" fill="url(#b)"/><path d="M86.716,34.194a.918.918,0,0,0-.761,0,1.17,1.17,0,0,0-.33.211,1.021,1.021,0,0,0,0,1.423,1.17,1.17,0,0,0,.33.211.945.945,0,0,0,.761,0,1.136,1.136,0,0,0,.33-.211,1.014,1.014,0,0,0,0-1.423,1.136,1.136,0,0,0-.33-.211Z" transform="translate(-75.313 -30.106)" fill="url(#b)"/><path d="M120.851,34.16a1,1,0,0,0-1.095.22,1.179,1.179,0,0,0-.212.331.956.956,0,0,0,0,.761,1.179,1.179,0,0,0,.212.331,1.015,1.015,0,0,0,1.422,0,1.148,1.148,0,0,0,.211-.331.836.836,0,0,0,.08-.381,1,1,0,0,0-.618-.931Z" transform="translate(-105.437 -30.081)" fill="url(#b)"/><path d="M197.2,34.133H163.133a1,1,0,0,0,0,2H197.2a1,1,0,0,0,0-2Z" transform="translate(-143.094 -30.125)" fill="url(#b)"/></g><g transform="translate(14.921 18.634)"><path d="M11.4,22.8a11.4,11.4,0,1,1,8.064-3.34A11.4,11.4,0,0,1,11.4,22.8ZM11.4.912a10.49,10.49,0,1,0,7.419,3.072A10.491,10.491,0,0,0,11.4.912Zm0,0" transform="translate(0.001 0.001)" fill="url(#g)"/><path d="M318.946,342.02a.443.443,0,0,1-.319-.134l-2.515-2.512a.456.456,0,1,1,.645-.645l2.512,2.512a.454.454,0,0,1,0,.645A.462.462,0,0,1,318.946,342.02Zm0,0" transform="translate(-297.964 -319.291)" fill="url(#g)"/><path d="M341.528,319.357a.451.451,0,0,1-.321-.134l-2.515-2.515a.457.457,0,0,1,.647-.645l2.515,2.515a.456.456,0,0,1-.326.778Zm0,0" transform="translate(-319.256 -297.917)" fill="url(#g)"/><path d="M349.2,352.211a.463.463,0,0,1-.326-.134.458.458,0,0,1,0-.645l2.58-2.58a.453.453,0,0,1,.643,0,.458.458,0,0,1,0,.645l-2.58,2.58A.442.442,0,0,1,349.2,352.211Zm0,0" transform="translate(-328.855 -328.836)" fill="url(#g)"/><path d="M354.47,400.172a.471.471,0,0,1-.326-.134l-5.28-5.28a.457.457,0,1,1,.647-.645l5.28,5.28a.458.458,0,0,1,0,.645.452.452,0,0,1-.321.134Zm0,0" transform="translate(-328.848 -371.516)" fill="url(#g)"/><path d="M399.718,354.914a.451.451,0,0,1-.321-.134l-5.28-5.28a.458.458,0,0,1,0-.645.453.453,0,0,1,.643,0l5.286,5.28a.457.457,0,0,1-.326.778Zm0,0" transform="translate(-371.522 -328.837)" fill="url(#g)"/><path d="M443.121,445.409a2.267,2.267,0,0,1-1.611-.669.458.458,0,0,1,0-.645.453.453,0,0,1,.643,0,1.4,1.4,0,0,0,1.937,0,1.368,1.368,0,0,0,0-1.934.458.458,0,0,1,0-.645.453.453,0,0,1,.643,0,2.281,2.281,0,0,1-1.611,3.893Zm0,0" transform="translate(-416.212 -416.218)" fill="url(#g)"/><path d="M72.456,192.073a.456.456,0,0,1-.456-.456v-7.158a.456.456,0,0,1,.912,0v7.158a.456.456,0,0,1-.456.456Zm0,0" transform="translate(-67.894 -173.512)" fill="url(#g)"/><path d="M312.454,192.067a.456.456,0,0,1-.454-.456v-7.158a.456.456,0,1,1,.91,0v7.158A.456.456,0,0,1,312.454,192.067Zm0,0" transform="translate(-294.21 -173.505)" fill="url(#g)"/><path d="M264.454,194.023a.455.455,0,0,1-.454-.456v-9.112a.456.456,0,0,1,.913,0v9.112a.456.456,0,0,1-.459.456Zm0,0" transform="translate(-248.95 -173.508)" fill="url(#g)"/><path d="M86.134,184.912H72.453a.456.456,0,1,1,0-.912h13.68a.456.456,0,0,1,0,.912Zm0,0" transform="translate(-67.891 -173.508)" fill="url(#g)"/><path d="M133.017,115.193a.456.456,0,0,1-.456-.456,1.825,1.825,0,0,0-3.649,0,.456.456,0,0,1-.912,0,2.736,2.736,0,1,1,5.473,0,.456.456,0,0,1-.455.456Zm0,0" transform="translate(-120.702 -105.613)" fill="url(#g)"/><path d="M128.456,156.1a.456.456,0,0,1-.456-.456v-3.193a.456.456,0,1,1,.912,0v3.193a.456.456,0,0,1-.456.456Zm0,0" transform="translate(-120.702 -143.333)" fill="url(#g)"/><path d="M208.454,156.1a.456.456,0,0,1-.454-.456v-3.193a.456.456,0,1,1,.91,0v3.193a.456.456,0,0,1-.456.456Zm0,0" transform="translate(-196.141 -143.33)" fill="url(#g)"/><path d="M181.019,115.193a.456.456,0,0,1-.456-.456,1.823,1.823,0,0,0-3.647,0,.458.458,0,1,1-.915,0,2.737,2.737,0,1,1,5.474,0,.456.456,0,0,1-.456.456Zm0,0" transform="translate(-165.966 -105.613)" fill="url(#g)"/><path d="M176.459,154.736a.457.457,0,0,1-.459-.456v-1.824a.458.458,0,1,1,.915,0v1.824a.456.456,0,0,1-.456.456Zm0,0" transform="translate(-165.966 -143.333)" fill="url(#g)"/><path d="M256.454,154.733a.456.456,0,0,1-.454-.456v-1.824a.456.456,0,1,1,.91,0v1.824A.456.456,0,0,1,256.454,154.733Zm0,0" transform="translate(-241.405 -143.33)" fill="url(#g)"/></g></g></g></g></g></svg>