<svg xmlns="http://www.w3.org/2000/svg" xmlns:xlink="http://www.w3.org/1999/xlink" width="65" height="65" viewBox="0 0 65 65"><defs><clipPath id="a"><rect width="65" height="65" transform="translate(73 240)"/></clipPath><linearGradient id="b" x1="0.5" x2="0.5" y2="1" gradientUnits="objectBoundingBox"><stop offset="0" stop-color="#ff790e"/><stop offset="1" stop-color="#6423d2"/></linearGradient></defs><g transform="translate(-562 -144)"><g transform="translate(489 -96)" clip-path="url(#a)"><g transform="translate(75.786 242.786)"><path d="M55.113,0H5.014A5.014,5.014,0,0,0,0,5.014v50.1a5.014,5.014,0,0,0,5.014,5.014h50.1a5.014,5.014,0,0,0,5.014-5.014V5.014A5.014,5.014,0,0,0,55.113,0Zm3.007,55.113a3.006,3.006,0,0,1-3.006,3.006H5.014a3.006,3.006,0,0,1-3.006-3.006V10.02H58.119Zm0-47.1H2v-3A3.006,3.006,0,0,1,5.014,2h50.1a3.006,3.006,0,0,1,3.007,3.01v3Z" transform="translate(0 0)" fill="url(#b)"/><path d="M44.671,34.133h-1a1,1,0,1,0,0,2h1a1,1,0,1,0,0-2Z" transform="translate(-37.842 -30.31)" fill="url(#b)"/><path d="M86.716,34.194a.917.917,0,0,0-.761,0,1.158,1.158,0,0,0-.331.211,1.016,1.016,0,0,0,0,1.423,1.158,1.158,0,0,0,.331.211.944.944,0,0,0,.761,0,1.158,1.158,0,0,0,.331-.211,1.016,1.016,0,0,0,0-1.423A1.158,1.158,0,0,0,86.716,34.194Z" transform="translate(-75.498 -30.291)" fill="url(#b)"/><path d="M120.852,34.16a1,1,0,0,0-1.1.22,1.157,1.157,0,0,0-.211.331.943.943,0,0,0,0,.761,1.157,1.157,0,0,0,.211.331,1.016,1.016,0,0,0,1.423,0,1.158,1.158,0,0,0,.211-.331.841.841,0,0,0,.08-.381,1,1,0,0,0-.617-.931Z" transform="translate(-105.623 -30.266)" fill="url(#b)"/><path d="M197.2,34.133H163.133a1,1,0,0,0,0,2H197.2a1,1,0,0,0,0-2Z" transform="translate(-143.28 -30.31)" fill="url(#b)"/></g><g transform="translate(89.714 259.5)"><g transform="translate(28.982 11.531)"><path d="M453.547,180.2a.639.639,0,1,0,.188.453A.644.644,0,0,0,453.547,180.2Z" transform="translate(-452.454 -180.008)" fill="url(#b)"/></g><g transform="translate(0)"><g transform="translate(0)"><path d="M32.616.188A.641.641,0,0,0,32.163,0H16.405a.641.641,0,0,0-.641.641V2.473L9.693,4.1a.641.641,0,0,0-.453.785l3.147,11.744L9.664,19.351a1.921,1.921,0,0,0-1.586-.839H1.929A1.924,1.924,0,0,0,.007,20.434V30.875A1.924,1.924,0,0,0,1.929,32.8H8.078a1.925,1.925,0,0,0,1.865-1.459L10.7,32a3.227,3.227,0,0,0,2.121.8H32.163a.641.641,0,0,0,.641-.641V.641A.641.641,0,0,0,32.616.188ZM8.718,30.876a.641.641,0,0,1-.641.641H1.929a.641.641,0,0,1-.641-.641V20.435a.641.641,0,0,1,.641-.641c1.265.068,2.1,0,2.863,0,1.125,0,1.687,0,3.286,0a.641.641,0,0,1,.641.641V30.876Zm1.924-25.7L15.765,3.8V6.173l-.429.115a.641.641,0,0,0-.453.785,1.727,1.727,0,0,1-1.22,2.112.641.641,0,0,0-.453.786l2.5,9.246H14.421l-.663-2.592a.64.64,0,0,0-.107-.225Zm5.122,3.939v5.405L14.6,10.19A3,3,0,0,0,15.765,9.111Zm9.2,22.405H12.826a1.947,1.947,0,0,1-1.279-.479L10,29.687v-8.86l2.8-2.8.507,1.984a.641.641,0,0,0,.621.482H26.518a.9.9,0,1,1,0,1.794H20.065a.641.641,0,0,0,0,1.281h8.458a.9.9,0,1,1,0,1.794H20.065a.641.641,0,0,0,0,1.281h7.087a.9.9,0,0,1,0,1.794H20.065a.641.641,0,0,0,0,1.281h4.9a.9.9,0,1,1,0,1.793Zm6.555,0H26.951a2.17,2.17,0,0,0,0-1.794h.2A2.176,2.176,0,0,0,29.1,26.57a2.176,2.176,0,0,0,1.172-3.4V15.054a.641.641,0,1,0-1.281,0v7.289a2.178,2.178,0,0,0-.467-.051H28.5a2.177,2.177,0,0,0-1.984-3.075h-1.03a3.066,3.066,0,1,0-2.409,0h-3.5V7.037a3.015,3.015,0,0,0,2.3-2.3h4.818a3.015,3.015,0,0,0,2.3,2.3V9.029a.641.641,0,1,0,1.281,0V6.466a.641.641,0,0,0-.641-.641A1.727,1.727,0,0,1,27.905,4.1a.641.641,0,0,0-.641-.641H21.3a.641.641,0,0,0-.641.641,1.727,1.727,0,0,1-1.725,1.725.641.641,0,0,0-.641.641V19.217H17.046V1.282H31.522ZM24.284,18.183A1.784,1.784,0,1,1,26.068,16.4,1.786,1.786,0,0,1,24.284,18.183Z" transform="translate(-0.007)" fill="url(#b)"/></g></g></g></g></g></svg>