<svg xmlns="http://www.w3.org/2000/svg" xmlns:xlink="http://www.w3.org/1999/xlink" width="50" height="50" viewBox="0 0 50 50">
  <defs>
    <clipPath id="clip-path">
      <rect id="Rectangle_807" data-name="Rectangle 807" width="50" height="50" transform="translate(-5228 -23936)" fill="#6423d2"/>
    </clipPath>
    <clipPath id="clip-path-2">
      <rect id="Rectangle_806" data-name="Rectangle 806" width="50" height="50" fill="#6423d2"/>
    </clipPath>
  </defs>
  <g id="Mask_Group_173" data-name="Mask Group 173" transform="translate(5228 23936)" clip-path="url(#clip-path)">
    <g id="Mask_Group_172" data-name="Mask Group 172" transform="translate(-5228 -23936)" clip-path="url(#clip-path-2)">
      <g id="gift" transform="translate(0.856 1.52)">
        <path id="Path_1196" data-name="Path 1196" d="M48.592,20.334a5.564,5.564,0,0,0,1.485-3.8A5.491,5.491,0,0,0,44.638,11c-2.262,0-7.475,3.383-9.56,6.423C32.924,14.383,27.73,11.1,25.557,11.1a5.5,5.5,0,0,0-5.439,5.537A5.568,5.568,0,0,0,21.5,20.324H11V33.553h2.872V59.194h42.46V33.563h2.862V20.334Zm-3.954-7.278a3.458,3.458,0,0,1,3.383,3.59,3.586,3.586,0,0,1-2.774,3.531H36.927c-.531-.157-.7-.344-.7-.452C36.228,17.973,42.376,13.056,44.638,13.056Zm-19.081,0c2.154,0,8.409,4.918,8.409,6.669,0,.157-.364.334-.629.452h-8.38a3.586,3.586,0,0,1-2.774-3.531A3.512,3.512,0,0,1,25.557,13.056ZM28.94,57.139H15.918V33.563H28.94Zm0-25.523H13.056V22.39H28.95v9.226ZM39.189,57.139h-8.2V22.38h8.2Zm15.078,0H41.244V33.563H54.267Zm2.862-25.523H41.244V22.39H57.139v9.226Z" transform="translate(-11 -11)" fill="#6423d2"/>
      </g>
    </g>
  </g>
</svg>
