<svg xmlns="http://www.w3.org/2000/svg" xmlns:xlink="http://www.w3.org/1999/xlink" width="28" height="28" viewBox="0 0 28 28">
  <defs>
    <clipPath id="clip-path">
      <rect id="Rectangle_807" data-name="Rectangle 807" width="28" height="28" transform="translate(-5228 -23936)"/>
    </clipPath>
    <clipPath id="clip-path-2">
      <rect id="Rectangle_806" data-name="Rectangle 806" width="28" height="28"/>
    </clipPath>
  </defs>
  <g id="Mask_Group_173" data-name="Mask Group 173" transform="translate(5228 23936)" clip-path="url(#clip-path)">
    <g id="Mask_Group_172" data-name="Mask Group 172" transform="translate(-5228 -23936)" clip-path="url(#clip-path-2)">
      <g id="gift" transform="translate(0.48 0.851)">
        <path id="Path_1196" data-name="Path 1196" d="M32.051,16.227a3.116,3.116,0,0,0,.832-2.126A3.075,3.075,0,0,0,29.837,11c-1.267,0-4.186,1.895-5.354,3.6-1.206-1.7-4.114-3.542-5.332-3.542a3.079,3.079,0,0,0-3.046,3.1,3.118,3.118,0,0,0,.777,2.065H11V23.63h1.608V37.989H36.386V23.635h1.6V16.227Zm-2.214-4.076a1.937,1.937,0,0,1,1.895,2.01,2.008,2.008,0,0,1-1.553,1.977h-4.66c-.3-.088-.391-.193-.391-.253C25.128,14.905,28.57,12.151,29.837,12.151Zm-10.685,0c1.206,0,4.709,2.754,4.709,3.734,0,.088-.2.187-.353.253H18.816a2.008,2.008,0,0,1-1.553-1.977A1.967,1.967,0,0,1,19.152,12.151Zm1.895,24.687H13.754v-13.2h7.292Zm0-14.293h-8.9V17.378h8.9v5.166Zm5.739,14.293H22.192V17.373h4.594Zm8.444,0H27.937v-13.2h7.292Zm1.6-14.293h-8.9V17.378h8.9v5.166Z" transform="translate(-11 -11)" fill="#fff"/>
      </g>
    </g>
  </g>
</svg>
