<svg xmlns="http://www.w3.org/2000/svg" xmlns:xlink="http://www.w3.org/1999/xlink" width="65" height="65" viewBox="0 0 65 65"><defs><clipPath id="a"><rect width="65" height="65" transform="translate(1052 -22998)"/></clipPath><linearGradient id="b" x1="0.5" x2="0.5" y2="1" gradientUnits="objectBoundingBox"><stop offset="0" stop-color="#ff790e"/><stop offset="1" stop-color="#6423d2"/></linearGradient></defs><g transform="translate(-360 -144)"><g transform="translate(-692 23142)" clip-path="url(#a)"><g transform="translate(1054.6 -22995.398)"><path d="M55.113,0H5.014A5.014,5.014,0,0,0,0,5.014v50.1a5.014,5.014,0,0,0,5.014,5.014h50.1a5.014,5.014,0,0,0,5.014-5.014V5.014A5.014,5.014,0,0,0,55.113,0Zm3.007,55.113a3.006,3.006,0,0,1-3.006,3.006H5.014a3.006,3.006,0,0,1-3.006-3.006V10.02H58.119Zm0-47.1H2v-3A3.006,3.006,0,0,1,5.014,2h50.1a3.006,3.006,0,0,1,3.007,3.01v3Z" fill="url(#b)"/><path d="M44.671,34.133h-1a1,1,0,1,0,0,2h1a1,1,0,1,0,0-2Z" transform="translate(-37.656 -30.125)" fill="url(#b)"/><path d="M86.716,34.194a.917.917,0,0,0-.761,0,1.158,1.158,0,0,0-.331.211,1.016,1.016,0,0,0,0,1.423,1.158,1.158,0,0,0,.331.211.944.944,0,0,0,.761,0,1.158,1.158,0,0,0,.331-.211,1.016,1.016,0,0,0,0-1.423A1.158,1.158,0,0,0,86.716,34.194Z" transform="translate(-75.313 -30.106)" fill="url(#b)"/><path d="M120.852,34.16a1,1,0,0,0-1.1.22,1.157,1.157,0,0,0-.211.331.943.943,0,0,0,0,.761,1.157,1.157,0,0,0,.211.331,1.016,1.016,0,0,0,1.423,0,1.158,1.158,0,0,0,.211-.331.841.841,0,0,0,.08-.381,1,1,0,0,0-.617-.931Z" transform="translate(-105.437 -30.081)" fill="url(#b)"/><path d="M197.2,34.133H163.133a1,1,0,0,0,0,2H197.2a1,1,0,0,0,0-2Z" transform="translate(-143.094 -30.125)" fill="url(#b)"/><g transform="translate(14.028 19.066)"><g transform="translate(0)"><path d="M30.83,25.46a.67.67,0,0,0-.516-.258H5.8L5.159,21.85c0-.258-.387-.516-.645-.516H.645a.645.645,0,0,0,0,1.29H4L7.1,38.361a4.545,4.545,0,0,0,4.385,3.612H26.319a.645.645,0,1,0,0-1.29H11.61a2.974,2.974,0,0,1-2.58-1.418l18.833-2.58a.555.555,0,0,0,.516-.516l2.58-10.32A.637.637,0,0,0,30.83,25.46ZM27.22,35.523,8.385,37.975,6.063,26.365H29.408Z" transform="translate(0 -21.334)" fill="url(#b)"/></g><g transform="translate(7.74 21.93)"><g transform="translate(0 0)"><path d="M131.225,384a3.194,3.194,0,1,0,2.29.935,3.225,3.225,0,0,0-2.29-.935Zm0,5.159a1.935,1.935,0,1,1,1.935-1.935,1.985,1.985,0,0,1-1.935,1.935Z" transform="translate(-128 -384)" fill="url(#b)"/></g></g><g transform="translate(20.64 21.93)"><g transform="translate(0 0)"><path d="M344.559,384a3.194,3.194,0,1,0,2.29.935,3.225,3.225,0,0,0-2.29-.935Zm0,5.159a1.935,1.935,0,1,1,1.935-1.935,1.985,1.985,0,0,1-1.935,1.935Z" transform="translate(-341.334 -384)" fill="url(#b)"/></g></g></g></g></g></g></svg>