<svg xmlns="http://www.w3.org/2000/svg" xmlns:xlink="http://www.w3.org/1999/xlink" width="65" height="65" viewBox="0 0 65 65"><defs><clipPath id="a"><rect width="65" height="65" transform="translate(1077 -22800)"/></clipPath><linearGradient id="b" x1="0.5" x2="0.5" y2="1" gradientUnits="objectBoundingBox"><stop offset="0" stop-color="#ff790e"/><stop offset="1" stop-color="#6423d2"/></linearGradient></defs><g transform="translate(-853 -184)"><g transform="translate(85 40)"><g transform="translate(-309 22944)" clip-path="url(#a)"><g transform="translate(1079.6 -22797.398)"><path d="M55.113,0H5.014A5.014,5.014,0,0,0,0,5.014v50.1a5.014,5.014,0,0,0,5.014,5.014h50.1a5.014,5.014,0,0,0,5.014-5.014V5.014A5.014,5.014,0,0,0,55.113,0Zm3.007,55.113a3.006,3.006,0,0,1-3.006,3.006H5.014a3.006,3.006,0,0,1-3.006-3.006V10.02H58.119Zm0-47.1H2v-3A3.006,3.006,0,0,1,5.014,2h50.1a3.006,3.006,0,0,1,3.007,3.01v3Z" fill="url(#b)"/><path d="M44.671,34.133h-1a1,1,0,1,0,0,2h1a1,1,0,1,0,0-2Z" transform="translate(-37.656 -30.125)" fill="url(#b)"/><path d="M86.716,34.194a.917.917,0,0,0-.761,0,1.158,1.158,0,0,0-.331.211,1.016,1.016,0,0,0,0,1.423,1.158,1.158,0,0,0,.331.211.944.944,0,0,0,.761,0,1.158,1.158,0,0,0,.331-.211,1.016,1.016,0,0,0,0-1.423A1.158,1.158,0,0,0,86.716,34.194Z" transform="translate(-75.313 -30.106)" fill="url(#b)"/><path d="M120.852,34.16a1,1,0,0,0-1.1.22,1.157,1.157,0,0,0-.211.331.943.943,0,0,0,0,.761,1.157,1.157,0,0,0,.211.331,1.016,1.016,0,0,0,1.423,0,1.158,1.158,0,0,0,.211-.331.841.841,0,0,0,.08-.381,1,1,0,0,0-.617-.931Z" transform="translate(-105.437 -30.081)" fill="url(#b)"/><path d="M197.2,34.133H163.133a1,1,0,0,0,0,2H197.2a1,1,0,0,0,0-2Z" transform="translate(-143.094 -30.125)" fill="url(#b)"/><g transform="translate(12.15 17.931)"><path d="M51.151,59H15.614a.592.592,0,0,0-.616.582V76.955a.591.591,0,0,0,.616.581h7.927V88.47a.6.6,0,0,0,.631.581H42.595a.6.6,0,0,0,.631-.581V77.536h7.927a.591.591,0,0,0,.616-.581V59.581A.592.592,0,0,0,51.151,59ZM23.544,70.67H20.188v-4.8h3.356Zm4.119,17.163h-2.9V85.011h.488a2.439,2.439,0,0,1,2.411,2.458Zm14.341,0H38.955v-.4a2.458,2.458,0,0,1,2.467-2.423h.585Zm0-4.043h-.585a3.68,3.68,0,0,0-3.687,3.644v.4H28.878V87.47a3.661,3.661,0,0,0-3.63-3.68H24.76V65.866H42Zm8.544-7.475H43.224V71.891H47.2a.631.631,0,0,0,.6-.64V65.285a.631.631,0,0,0-.6-.64H19.564a.631.631,0,0,0-.6.64v5.967a.631.631,0,0,0,.6.639h3.98v4.424H16.221V60.221H50.547ZM43.224,70.67v-4.8H46.58v4.8Z" transform="translate(-14.998 -58.999)" fill="url(#b)"/><path d="M178.125,177.244a6.431,6.431,0,1,0-6.431-6.431,6.431,6.431,0,0,0,6.431,6.431Zm0-11.641a5.211,5.211,0,1,1-5.211,5.211A5.211,5.211,0,0,1,178.125,165.6Z" transform="translate(-159.739 -156.343)" fill="url(#b)"/></g></g></g></g></g></svg>